<?xml version="1.0" encoding="UTF-8"?>
<svg id="Layer_1" xmlns="http://www.w3.org/2000/svg" version="1.1" viewBox="0 0 110.06 113.27">
  <!-- Generator: Adobe Illustrator 29.4.0, SVG Export Plug-In . SVG Version: 2.1.0 Build 152)  -->
  <defs>
    <style>
      .st0 {
        fill: #5f9fd3;
        stroke: #5f9fd3;
      }

      .st0, .st1 {
        stroke-miterlimit: 10;
      }

      .st1 {
        fill: #182885;
        stroke: #182885;
      }
    </style>
  </defs>
  <path class="st1" d="M27.45,15.02c2.7-1.34,5.07-3.47,7.53-5.23,10.07-8.28,20.81,1.77,31.92-.17,4.56-.9,8.66-3.47,12.87-5.27,2.89-1.23,5.7-2.11,8.75-1.74,4.33.44,8.2,4.12,8.82,8.47.6,3.94-1.07,7.79-1.45,11.68-1.33,9.44,9.73,13.91,12.39,22.2,2.59,6.98,1.21,13.73-3.71,19.29-2.21,2.78-4.72,5.45-5.79,8.88-3.29,10.49,13.44,21.25,2.11,30.28-11.23,8.1-23.43-3.26-35.25-3.43-4.31-.18-8.36,1.35-11.33,4.47-2.19,2.09-4.18,4.57-7.05,5.71-7.9,2.96-14.69-6.68-22.95-6.6-3.7-.29-7.54.12-11.15-.85-2.71-.67-5.33-2.43-5.88-5.31-1.29-6.85,1.99-13.84.78-20.63-.52-3.06-1.88-5.88-3.18-8.68-3.58-7.27-3.94-11.27-1.09-18.91,3.02-7.84,3.33-16.45,1.61-24.6-.14-1.14-.22-2.4-.14-3.58.93-10.27,13.9-1.6,22.14-5.95l.06-.03s-.01,0-.01,0Z"/>
  <path class="st0" d="M8.93,7.65c1.3-3.36,4.19-6.24,7.78-7,10.58-1.89,16.47,13.84,28.9,8.55,2.85-1.08,5.2-3.33,8.16-4.21,3.21-.97,6.81-.55,9.72,1.11,8.07,5.5,6.16,12.43,19.2,15.5,3.47.81,7.11,1.06,10.65,1.05,5.4-.22,9.82.4,12.74,5.55,3.89,7.17-.95,12.6-6.08,17.28-13.88,11.7-.83,19.69-.97,32.92-.48,4.42-4.01,7.35-7.04,10.2-6.78,5.22-6.13,13.58-10.73,20.04-8.5,11.15-18.63-3.85-29.88-4.16-2.7-.36-5.42-.08-8.13-.16-2.94-.01-5.81-1.06-8.05-2.96-1.55-1.25-2.96-2.69-4.39-4.07-6.14-5.87-11.72-6.41-19.77-6.01-4.51.06-8.51-1.52-8.93-6.5-.41-6.08,5.35-11.91,2.13-17.84-.47-.97-1.04-1.89-1.59-2.82-3.74-6.24-2.42-14.78,2.78-19.8,1.1-1.19,2.19-2.43,2.92-3.88,2.56-5.8,3.43-13.9,1.71-20.01-1.39-4.14-2.93-8.35-1.14-12.73l.03-.07-.02.02h0Z"/>
</svg>