<?xml version="1.0" encoding="UTF-8"?>
<svg id="Layer_1" xmlns="http://www.w3.org/2000/svg" xmlns:xlink="http://www.w3.org/1999/xlink" version="1.1" viewBox="0 0 1366 768">
  <!-- Generator: Adobe Illustrator 29.4.0, SVG Export Plug-In . SVG Version: 2.1.0 Build 152)  -->
  <defs>
    <style>
      .st0 {
        filter: url(#drop-shadow-9);
      }

      .st0, .st1, .st2, .st3 {
        fill: #293886;
      }

      .st1 {
        filter: url(#drop-shadow-8);
      }

      .st2 {
        filter: url(#drop-shadow-6);
      }

      .st4 {
        fill: #569dd5;
        filter: url(#drop-shadow-7);
      }

      .st3 {
        filter: url(#drop-shadow-10);
      }

      .st5 {
        filter: url(#drop-shadow-3);
      }

      .st5, .st6, .st7 {
        fill: #2f6bb3;
      }

      .st6 {
        filter: url(#drop-shadow-2);
      }

      .st7 {
        filter: url(#drop-shadow-4);
      }

      .st8 {
        filter: url(#drop-shadow-1);
      }

      .st8, .st9 {
        fill: #90b0dc;
      }

      .st9 {
        filter: url(#drop-shadow-5);
      }

      .st10 {
        fill: #c6c7e4;
      }
    </style>
    <filter id="drop-shadow-1" x="-13.3" y="-9.46" width="461.28" height="222.24" filterUnits="userSpaceOnUse">
      <feOffset dx="-5.67" dy="-2.83"/>
      <feGaussianBlur result="blur" stdDeviation="2.83"/>
      <feFlood flood-color="#231f20" flood-opacity=".75"/>
      <feComposite in2="blur" operator="in"/>
      <feComposite in="SourceGraphic"/>
    </filter>
    <filter id="drop-shadow-2" x="-14.26" y="441.02" width="339.6" height="256.56" filterUnits="userSpaceOnUse">
      <feOffset dx="-5.67" dy="-2.83"/>
      <feGaussianBlur result="blur1" stdDeviation="2.83"/>
      <feFlood flood-color="#231f20" flood-opacity=".75"/>
      <feComposite in2="blur1" operator="in"/>
      <feComposite in="SourceGraphic"/>
    </filter>
    <filter id="drop-shadow-3" x="-13.3" y="-9.46" width="675.12" height="264.72" filterUnits="userSpaceOnUse">
      <feOffset dx="-5.67" dy="-2.83"/>
      <feGaussianBlur result="blur2" stdDeviation="2.83"/>
      <feFlood flood-color="#231f20" flood-opacity=".75"/>
      <feComposite in2="blur2" operator="in"/>
      <feComposite in="SourceGraphic"/>
    </filter>
    <filter id="drop-shadow-4" x="1159.1" y="27.02" width="183.12" height="255.36" filterUnits="userSpaceOnUse">
      <feOffset dx="-5.67" dy="-2.83"/>
      <feGaussianBlur result="blur3" stdDeviation="2.83"/>
      <feFlood flood-color="#231f20" flood-opacity=".75"/>
      <feComposite in2="blur3" operator="in"/>
      <feComposite in="SourceGraphic"/>
    </filter>
    <filter id="drop-shadow-5" x="-13.3" y="-9.46" width="967.92" height="462" filterUnits="userSpaceOnUse">
      <feOffset dx="-5.67" dy="-2.83"/>
      <feGaussianBlur result="blur4" stdDeviation="2.83"/>
      <feFlood flood-color="#231f20" flood-opacity=".75"/>
      <feComposite in2="blur4" operator="in"/>
      <feComposite in="SourceGraphic"/>
    </filter>
    <filter id="drop-shadow-6" x="-13.3" y="-9.46" width="1110" height="624.96" filterUnits="userSpaceOnUse">
      <feOffset dx="-5.67" dy="-2.83"/>
      <feGaussianBlur result="blur5" stdDeviation="2.83"/>
      <feFlood flood-color="#231f20" flood-opacity=".75"/>
      <feComposite in2="blur5" operator="in"/>
      <feComposite in="SourceGraphic"/>
    </filter>
    <filter id="drop-shadow-7" x="-13.3" y="-9.46" width="1226.88" height="698.64" filterUnits="userSpaceOnUse">
      <feOffset dx="-5.67" dy="-2.83"/>
      <feGaussianBlur result="blur6" stdDeviation="2.83"/>
      <feFlood flood-color="#231f20" flood-opacity=".75"/>
      <feComposite in2="blur6" operator="in"/>
      <feComposite in="SourceGraphic"/>
    </filter>
    <filter id="drop-shadow-8" x="618.14" y="5.42" width="261.36" height="347.28" filterUnits="userSpaceOnUse">
      <feOffset dx="-5.67" dy="-2.83"/>
      <feGaussianBlur result="blur7" stdDeviation="2.83"/>
      <feFlood flood-color="#231f20" flood-opacity=".75"/>
      <feComposite in2="blur7" operator="in"/>
      <feComposite in="SourceGraphic"/>
    </filter>
    <filter id="drop-shadow-9" x="153.5" y="159.5" width="510" height="214.56" filterUnits="userSpaceOnUse">
      <feOffset dx="-5.67" dy="-2.83"/>
      <feGaussianBlur result="blur8" stdDeviation="2.83"/>
      <feFlood flood-color="#231f20" flood-opacity=".75"/>
      <feComposite in2="blur8" operator="in"/>
      <feComposite in="SourceGraphic"/>
    </filter>
    <filter id="drop-shadow-10" x="-13.3" y="16.94" width="289.68" height="163.68" filterUnits="userSpaceOnUse">
      <feOffset dx="-5.67" dy="-2.83"/>
      <feGaussianBlur result="blur9" stdDeviation="2.83"/>
      <feFlood flood-color="#231f20" flood-opacity=".75"/>
      <feComposite in2="blur9" operator="in"/>
      <feComposite in="SourceGraphic"/>
    </filter>
  </defs>
  <rect class="st10" x=".91" y="2.06" width="1365.09" height="765.94"/>
  <path class="st8" d="M424.03,79.64c-14.43,14-38.46,17.54-60.32,17.07-43.54-1.96-91.19-2.34-128.42,17.27-46.5,23.66-65.96,75.16-118.32,89.35l-.29.08c-33.08,9.08-67.36-1.43-99.59-8.45-5.32-.95-10.72-1.81-16.18-2.73V2.06h443.86c.71,26.98-.71,58.78-20.74,77.57Z"/>
  <path class="st6" d="M.91,466.41c27.84-11.05,68.15-13.93,101.31-13.87h.36c98.26-2.02,127.88,56.96,155.13,120.92,7.23,17.13,14.4,34.17,24.82,50.3,3.84,6.01,7.98,11.76,13.36,16.66,11.58,11.66,39.48,28.58,19.62,43.54-4.91,3.56-11.48,6.83-17.88,7.71-41.59,4.16-76.76-72.71-105.25-92.77-48.37-37.06-124.36-48.49-192.37-36.1l.91-96.39Z"/>
  <path class="st5" d="M658.73,138.68c-2.9,32.84-50.41,26.85-79.11,38.97-23.82,9.73-41.43,18.82-69.3,12.83-10.13-1.93-19.98-4.94-29.92-7.44-20.61-5.2-41.9-7.84-63.25-10.74-23.62-2.96-48.34-4.93-71.68.05-22.04,4.4-39.76,16.51-55.45,29.08-44.07,37.61-69.2,41.11-131.78,47.21-26.84,2.84-44.14-1.36-68.9-8.7-28.28-8.44-58.44-7.12-88.43-7.3v-49.74c16.56,4.99,33.11,11.61,49.88,13.95l.31.04c47.87,8.02,74.9-8.38,103.47-36.75,33.22-33.39,66.79-78.41,125.34-82.46,35.19-2.61,75.95,13.36,106.64-5.92,22.39-15.04,29.71-45.34,32.17-69.7h171.49c34.23,41.29,71.02,86.43,68.54,136.62Z"/>
  <path class="st7" d="M1178.92,74.93c-5.34-9.66-8.85-23.92-.43-31.56,7.15-6.67,19.55-6.09,28.5-1.32,7.89,4.01,12.93,10.29,17.75,16.48,17.05,25.9,52.44,37.47,79.09,55.84,27.65,19.87,41.59,52.08,32.81,81.05-5.47,20.58-26.83,34.91-41.02,51.76-7.79,9.13-13.55,20.06-25.74,26.1-16.44,7.96-33.82,1.4-32.14-15.11.38-6.86,3.08-13.51,6.66-19.44,54.51-71.4-29.52-105.41-65.35-163.58l-.12-.23Z"/>
  <path class="st9" d="M923.05,152.68c-4.36,3.58-8.93,7.05-13.51,10.5-42.13,29.49-70.08,71.5-74.33,116.14-1.22,11.81-.96,23.82-2.01,35.62-1.3,17.01-6.55,34.52-21.48,47.17-24.53,20.88-64.02,25.68-98.42,23.22-49.88-3.45-98.62-22.76-148.82-15.98-16.07,3.19-26.95,14.2-37.46,23.8-58.78,58.69-96.43,69.51-181.98,31-26.66-10.43-23.69-21.31-41.75-36.17-9.91-8.13-22.02-14.49-34.29-20.21-77.36-35.28-169.01-67.46-259.27-51.72-2.81.4-5.77.81-8.82,1.11v-108.61c33.4-3.95,84.71,14.59,110.23,20.16l.26.06c42.64,9.79,92.41,14.01,127.9-10.01,27.65-18.25,47.8-45.77,83.41-55.17,87.01-25.22,188.66,36.28,273.88,1.54,19.78-7.82,32.17-21.51,34.39-39.1,5.98-47.52-33.9-86.52-67.06-123.96h316.14c3.94,3.26,7.7,6.6,11.33,9.95,23.56,22.27,49.34,45.02,57.69,74.02,7.78,26.07-2.24,48.16-26.02,66.65Z"/>
  <path class="st2" d="M1050.72,199.04c-37.89,10.96-75.79,21.91-113.68,32.89-22.54,6-45.22,14.73-57.19,31.77-27.55,39.17-13.05,88.23-22.04,131.02-8.25,59.92-55.86,121.37-137.55,125.94-13.78,1.27-27.69,1.92-41.36,3.81-69.11,8.94-112.32,60.4-176.74,78.69-33.3,10.38-85.24,10.98-100.79-19.81-2.45-5.71-1.39-12.15,3-17.06,12.18-14.02,41.74-9.66,62.69-16.35,14.74-4.57,24.03-14.4,31.8-25.51,13.34-19.34,23.62-42.68,51.32-49.68,12.06-3.2,25.26-3.2,37.99-2.47,44.02,4.26,88.69,5.13,132.25-2.3,23.9-3.74,52.42-11.61,59.28-32.41,3.84-9.92-.58-27.51-15.91-27.33-7.49,1.04-12.58,5.88-17.58,10.54-24.29,30.11-73.87,36.27-117.43,37.83-49.02,1.56-102.88,7.26-127.04,43.4-9.34,12.3-20.67,24.6-37.81,30.26-42,15.09-91.6-2.56-119.42-29.43-35.82-31.74-52.24-74.16-86.93-106.43-54.21-46.85-175.12-42.59-256.68-32.75v-61.41c102.09-11.26,226.1,13.99,293.45,62.8,32.28,23.75,58.73,57.82,104.86,64.77,33.34,4.77,69.85-7.59,87.77-30.56,6.36-7.93,10.98-16.71,17.85-24.33,14.67-16.71,39.6-24.45,64.45-26.16,54.17-4.23,103.84,20.12,157.01,22.03,37.46,1.47,83.57-12.84,92.23-44.61,4.82-18.41-4.1-37.29-4.12-55.79-.47-21.77,6.86-43.57,20.54-62.43,5.93-8.17,13.07-15.79,21.27-22.62,22.99-19.27,57.45-31.69,67.52-58.2,8.11-20.82.13-44.31-13.72-62.34l-.16-.21c-16.28-20.95-51.98-38.88-63.53-62.53h141.75c32.3,53.23,101.54,93.89,105.67,153.9.7,25.49-14.48,35.81-43.03,43.08Z"/>
  <path class="st4" d="M1209.67,301.35c-15.91,25.9-72.28,24.43-102.15,37.16-27,10.27-50.05,28.18-62.7,47.48-50.38,76.81,20.84,150.07,20.9,225.93-.88,49.27-53.49,65.04-108.46,68.76-24.31,2.32-49.26,4.66-73.44.57-77.52-13.09-108.46-90.23-184.3-107.41-114.73-21.65-189.57,92.49-312.41,57.35-108.64-28.09-106.92-137.67-196.2-186.13-41.85-25.68-94.03-40.95-147-41.97-14.29-.49-28.72,1.03-43.02,1.39v-66.86c93.74-22.09,203.43,1.24,265.11,62.58l.19.19c39.82,39.31,60.8,93.98,121.2,117.24,25.51,10.06,56.52,13.72,82.24,2.35,34.6-15.18,46.1-50.36,80.64-65.63,46.03-20.3,105.57-.78,154.09-15.56,20.46-5.16,33.39-18.82,45.01-32.53,8.67-10.06,23.67-19.61,38.25-11.54,8.89,4.94,11.4,16.23,9.31,25.84-2.9,13.15-12.92,23.61-24.39,32.73-52.31,40.11-127.35,31.01-192.91,23.64-66.42-4.53-64,46.23-102.67,72.02-16.83,11.62-53.52,4.67-63.8,18.36-7.39,12.12,9.66,22.22,22.96,25.35,37.21,9.65,75.92-4.54,106.35-21.55,71.31-43.36,84.12-64.62,179.53-64.63,48.95-1.21,85.73-31.64,101.37-66.84,20.35-43.52,13.2-90.84,23.46-135.96,6.89-29.81,22.33-60.69,53.1-79.88,21.35-13.51,49.88-18.23,76.27-23.21,42.63-6.87,86.88-22.18,83.12-62.24-4.98-52.99-82.56-84.9-89.55-136.27h56.49c17.51,54.58,75.63,94.17,122.53,134.96,35.67,33.39,20.82,72.35-27.97,89.96-52.26,19.33-118.14,2.3-165.99,31.07-84.04,55.4-2.72,166.59-81.09,224.59-12.08,9.43-26.71,17.96-37.41,28.19-8.32,7.86-14.43,17.51-14.51,27.99-.5,29.89,44.38,52.52,79.37,41.37,29.35-7.76,50.88-29.83,56.7-53.6,13.73-45.48-23.32-85.99-31.57-129.41-5.85-37.53,15.4-61.53,59.88-73.46,42.27-13.11,87.35-18.55,131.24-26.92,20.95-4.72,47.3-11.26,68.15-11.81,14.32-.9,28.63,3.8,24.05,16.35Z"/>
  <path class="st1" d="M681.71,250.59c7.99-8.88,15.29-18.75,19.16-29.34,6.51-20.14,3.58-39.22,31.35-49.5,15.78-5.99,34.09-7.56,50.89-11.21,67.08-13.42,45.06-57.91,18.75-94.23-2.27-3.4-4.55-6.79-6.82-10.19-4.78-7.61-12-15.84-9.95-24.71,3.13-13.17,26.43-18.01,40.27-11.86,28.66,11.45,53.27,59.32,50.9,84.14-.66,21.34-13.57,41.07-36.64,52.41-13.12,6.96-28.12,12.23-41.35,18.95-41.41,19.6-38.59,51.11-35.78,85.02.96,15.64,1.61,31.59-5.78,46.28-7.29,14.95-23.9,25.27-41.44,32.62-13.14,5.58-28.29,9.68-43.28,7.29-23.11-3.12-42.09-21.97-39.18-40.54,3.63-21.98,33.83-37.89,48.74-54.93l.18-.2Z"/>
  <path class="st0" d="M283.64,235.04c10.16-5.53,19.66-12.03,29.32-18.24,23.09-15.57,51-26.67,81.06-30.38,63.89-11.01,127.56,30.25,184.64,5.33,17.33-6.86,35.63-21.59,55.71-20.82,21.03,1.72,27.14,22.81,26.04,37.17-1.48,26.6-19.47,49.04-54.68,46.51-10.41-.23-21.27-1.4-31.52,0-23.54,2.97-33.29,19.76-40.34,36.9-5.16,12.48-9.64,24.39-18.67,35.14-23.3,29.21-68.29,45.88-111.46,40.73-55.59-4.15-84.56-47.94-134.4-61.52-29.19-8.37-62.43-7.69-89.38-20.79-11.65-6.27-17.3-15.38-6.48-22.12,5.13-2.98,13.3-4.1,19.72-4.69,32.26-2.52,63.12-8.15,90.17-23.07l.27-.15Z"/>
  <path class="st3" d="M266.05,61.69c-9.6,8.75-24.81,11.48-38.66,13.46-51.71,4.8-56.36,25.82-81.41,57.01-21.06,24.23-60.09,45.87-98.58,42.24l-.31-.04c-16.52-2.2-30.32-10.6-45.94-15.07-.08-.01-.16-.04-.24-.05v-25.03c8.89,1.34,17.93,2.07,26.96,1.39,17.93-1.24,35.87-9.06,41.87-22.72,4.07-8.58,4.35-18.32,7.85-26.96,3.86-10.91,15.66-17.74,29.83-18.01,14.82-.73,30.55,2.56,45.37.31,29.15-4.75,33.99-30.39,68.85-37.62,14.4-3.08,32.51-3.94,44.72,3.85,10.2,6.85,8.32,19.49-.31,27.24Z"/>
</svg>