<?xml version="1.0" encoding="UTF-8"?>
<svg id="Layer_1" data-name="Layer 1" xmlns="http://www.w3.org/2000/svg" viewBox="0 0 560.95 406.61">
  <defs>
    <style>
      .cls-1 {
        fill: #649dd4;
        stroke: #649dd4;
      }

      .cls-1, .cls-2 {
        stroke-miterlimit: 10;
      }

      .cls-2 {
        fill: #2c337f;
        stroke: #2c337f;
      }
    </style>
  </defs>
  <path class="cls-2" d="M25.69,284.2c-2.35-26.92-23.37-49.68-22.78-77.03.08-15.31,6.42-29.68,10.06-44.32,7.49-26.96-3.82-42.85-9.81-67.58-3.61-15.26-.27-30.88,12.44-40.35,4.88-4.08,10.4-7.82,14.41-12.75,6.41-7.39,8.4-17.88,13.67-25.78C52.46,2.69,71.07,1.74,85.39,6c15.53,4.38,28.73,13.92,44,18.07,26.12,8.22,49.79-8.91,72.99-18.27,21.76-9.28,42.14-5.17,63.35,3.21,15.73,5.89,32.02,12.01,49.09,10.81,47.89-4.59,68.71-32.57,117.98-5.1,6.25,2.86,12.74,5.23,19.55,6.25,17.99,2.94,36.93-4.15,54.93,1.25,9.51,2.63,17.75,9.54,20.03,19.38,2.35,9.3.78,19.37,3.1,28.74,3.47,16.99,19.53,30.44,19.5,47.34.05,9.85-5.99,18.12-11.04,26.16-21.1,30.18,3.85,63.33,15.58,91.88,6.07,15.01,9.28,32.86.93,47.6-4.62,8.66-12.26,15.8-17.98,24.07-7.22,10.14-11.44,22.41-11.7,34.88-.91,16.85,10.99,38.66-6.05,50.68-25.55,15.9-51.36-9.41-76.6-14.01-16.97-4-35.35-2.96-50.88,5.35-10.75,5.49-20.36,13.82-31.66,18.2-30.88,12.21-60.55-9.14-87.33-22.29-36.51-17.88-81.05-22.79-117.56-4.84-14.38,7.15-30.22,15.8-46.2,8.23-12.84-5.62-23.22-16.68-35.95-22.79-32.52-17.07-58.53,5.6-70.96-6.86-11.15-14.95,27.32-33.71,23.17-69.52l-.02-.2Z"/>
  <path class="cls-1" d="M8.51,281.86c-8.97-16.01-10.99-35.92-3.04-52.74,4.07-9.23,10.93-17.42,14.08-26.6,3.53-9.58,1.77-19.96-1.83-29.28-8.32-20.59-23.12-45.74-2.64-64.02,29.52-25.43-11.75-47.62,5.37-72.46,12.84-15.44,40.4-16.17,59.05-14.46,32.14,4.51,43.84,12,73.47-7.31,9.77-5.89,20.71-10.5,32.17-10.01,26.18.64,52.43,22.12,78.98,22.65,22.77,1.39,39.61-17.8,61.18-17.9,12.89.01,23.63,8.95,34.88,14.24,30.57,16.26,62.38-18.42,92.38-11.88,17.1,3.68,26.06,21.45,39.4,30.69,6.7,4.73,14.85,6.3,22.81,7.54,9.26,1.29,19.21,4.79,22.61,14.19,9.48,30.29-31.16,37.57-11.42,72.8,6.79,13.16,18.33,25.93,19.47,41.05.65,8.1-3.05,15.13-7.69,21.54-23.14,27.79,1.6,48.37,4.98,76.54,2.61,23.6-23.26,33.25-25.34,55.78-1.28,8.5-.4,17.58-2.28,25.94-3.98,19.65-23.61,23.09-40.87,18.58-15.12-3.44-30.28-11.36-46.07-7.67-15.43,3.69-27.59,16.72-43.19,20.98-15.78,4.95-33.31,4.37-48.68-1.75-10.02-3.82-18.56-10.58-28.04-15.45-21.32-10.3-47.31-7.41-69.41-.24-17.35,6.03-36.71,13.05-52.93.44-7.77-5.53-14.48-13.45-22.84-18.17-10.67-6.39-23.73-6.64-35.57-3.71-24.99,5.78-46.75,24.88-73.27,21.48-12.61-1.45-24.92-9.41-28.25-22.11-3.06-10.45-.92-22.56-2.75-33.56-1.72-12.73-8.7-23.79-14.6-34.92l-.1-.19Z"/>
</svg>